<svg width="100%" height="100%" xmlns="http://www.w3.org/2000/svg">
   <g>
      <g>
         <g>
            <path style="stroke:rgb(0,0,0);fill:none;stroke-width:2.0;" d="M110.000000 280.000000L111.000000 278.000000L114.000000 274.000000L131.000000 254.000000L152.000000 229.000000L172.000000 214.000000L195.000000 195.000000L209.000000 181.000000L221.000000 170.000000L224.000000 165.000000L225.000000 165.000000L225.000000 164.000000"/>
         </g>
         <g>
            <path style="stroke:rgb(0,0,0);fill:none;stroke-width:2.0;" d="M225.000000 164.000000L226.000000 163.000000L226.000000 163.000000L230.000000 159.000000L232.000000 158.000000L233.000000 158.000000L233.000000 170.000000L232.000000 185.000000L232.000000 217.000000L233.000000 256.000000L234.000000 296.000000L236.000000 328.000000L237.000000 348.000000L237.000000 357.000000L237.000000 363.000000L237.000000 365.000000"/>
         </g>
         <g>
            <path style="stroke:rgb(0,0,0);fill:none;stroke-width:2.0;" d="M237.000000 365.000000L237.000000 363.000000L238.000000 353.000000L237.000000 343.000000L235.000000 342.000000L234.000000 342.000000L233.000000 342.000000L225.000000 341.000000L215.000000 340.000000L209.000000 340.000000L195.000000 335.000000L186.000000 331.000000L178.000000 328.000000L167.000000 324.000000L156.000000 319.000000L154.000000 318.000000L150.000000 315.000000L148.000000 315.000000L147.000000 314.000000L145.000000 314.000000L144.000000 313.000000L144.000000 313.000000L144.000000 312.000000L143.000000 312.000000L143.000000 310.000000L140.000000 309.000000L139.000000 309.000000L139.000000 308.000000L139.000000 307.000000L139.000000 307.000000L138.000000 307.000000L138.000000 306.000000L138.000000 306.000000L138.000000 305.000000L137.000000 305.000000L137.000000 304.000000L136.000000 303.000000L135.000000 303.000000L135.000000 302.000000L135.000000 301.000000L134.000000 301.000000L134.000000 300.000000L134.000000 299.000000L133.000000 297.000000L132.000000 297.000000L132.000000 296.000000L131.000000 296.000000L131.000000 296.000000L131.000000 294.000000L130.000000 294.000000L129.000000 293.000000L127.000000 291.000000L126.000000 289.000000L125.000000 289.000000L125.000000 288.000000L124.000000 288.000000L123.000000 288.000000L122.000000 287.000000L121.000000 287.000000L121.000000 286.000000L120.000000 286.000000L119.000000 286.000000L119.000000 285.000000L117.000000 285.000000L116.000000 284.000000L116.000000 283.000000L115.000000 283.000000L115.000000 282.000000L114.000000 282.000000L114.000000 281.000000L113.000000 281.000000L113.000000 280.000000L112.000000 280.000000L112.000000 279.000000L111.000000 279.000000"/>
         </g>
         <path style="stroke:rgb(0,0,0);fill:none;stroke-width:2.0;" d="M110.000000 280.000000L111.000000 278.000000L114.000000 274.000000L131.000000 254.000000L152.000000 229.000000L172.000000 214.000000L195.000000 195.000000L209.000000 181.000000L221.000000 170.000000L224.000000 165.000000L225.000000 165.000000L225.000000 164.000000L226.000000 163.000000L226.000000 163.000000L230.000000 159.000000L232.000000 158.000000L233.000000 158.000000L233.000000 170.000000L232.000000 185.000000L232.000000 217.000000L233.000000 256.000000L234.000000 296.000000L236.000000 328.000000L237.000000 348.000000L237.000000 357.000000L237.000000 363.000000L237.000000 365.000000L237.000000 363.000000L238.000000 353.000000L237.000000 343.000000L235.000000 342.000000L234.000000 342.000000L233.000000 342.000000L225.000000 341.000000L215.000000 340.000000L209.000000 340.000000L195.000000 335.000000L186.000000 331.000000L178.000000 328.000000L167.000000 324.000000L156.000000 319.000000L154.000000 318.000000L150.000000 315.000000L148.000000 315.000000L147.000000 314.000000L145.000000 314.000000L144.000000 313.000000L144.000000 313.000000L144.000000 312.000000L143.000000 312.000000L143.000000 310.000000L140.000000 309.000000L139.000000 309.000000L139.000000 308.000000L139.000000 307.000000L139.000000 307.000000L138.000000 307.000000L138.000000 306.000000L138.000000 306.000000L138.000000 305.000000L137.000000 305.000000L137.000000 304.000000L136.000000 303.000000L135.000000 303.000000L135.000000 302.000000L135.000000 301.000000L134.000000 301.000000L134.000000 300.000000L134.000000 299.000000L133.000000 297.000000L132.000000 297.000000L132.000000 296.000000L131.000000 296.000000L131.000000 296.000000L131.000000 294.000000L130.000000 294.000000L129.000000 293.000000L127.000000 291.000000L126.000000 289.000000L125.000000 289.000000L125.000000 288.000000L124.000000 288.000000L123.000000 288.000000L122.000000 287.000000L121.000000 287.000000L121.000000 286.000000L120.000000 286.000000L119.000000 286.000000L119.000000 285.000000L117.000000 285.000000L116.000000 284.000000L116.000000 283.000000L115.000000 283.000000L115.000000 282.000000L114.000000 282.000000L114.000000 281.000000L113.000000 281.000000L113.000000 280.000000L112.000000 280.000000L112.000000 279.000000L111.000000 279.000000"/>
      </g>
      <g>
         <path style="stroke:rgb(0,0,0);fill:none;stroke-width:2.0;" d="M401.000000 185.000000L401.000000 184.000000L401.000000 183.000000L400.000000 183.000000L400.000000 182.000000L399.000000 181.000000L398.000000 181.000000L397.000000 180.000000L396.000000 179.000000L395.000000 179.000000L394.000000 179.000000L393.000000 178.000000L391.000000 178.000000L391.000000 177.000000L387.000000 176.000000L386.000000 175.000000L385.000000 175.000000L382.000000 175.000000L380.000000 175.000000L379.000000 175.000000L378.000000 175.000000L375.000000 175.000000L374.000000 175.000000L370.000000 176.000000L368.000000 176.000000L366.000000 177.000000L360.000000 182.000000L357.000000 184.000000L352.000000 186.000000L345.000000 191.000000L338.000000 195.000000L331.000000 200.000000L328.000000 203.000000L326.000000 204.000000L322.000000 205.000000L321.000000 206.000000L321.000000 208.000000L321.000000 209.000000L320.000000 211.000000L319.000000 213.000000L318.000000 214.000000L318.000000 215.000000L318.000000 216.000000L318.000000 220.000000L318.000000 223.000000L318.000000 225.000000L318.000000 229.000000L318.000000 232.000000L319.000000 237.000000L320.000000 239.000000L321.000000 241.000000L321.000000 243.000000L324.000000 250.000000L325.000000 250.000000L325.000000 251.000000L325.000000 252.000000L326.000000 253.000000L330.000000 255.000000L337.000000 257.000000L348.000000 259.000000L365.000000 263.000000L381.000000 264.000000L397.000000 266.000000L403.000000 266.000000L412.000000 267.000000L420.000000 267.000000L422.000000 267.000000L423.000000 267.000000L423.000000 266.000000L425.000000 265.000000L431.000000 263.000000L432.000000 262.000000L433.000000 262.000000L434.000000 261.000000L435.000000 261.000000L436.000000 259.000000L437.000000 256.000000L440.000000 252.000000L441.000000 246.000000L442.000000 244.000000L442.000000 241.000000L442.000000 235.000000L442.000000 230.000000L442.000000 226.000000L441.000000 222.000000L439.000000 215.000000L437.000000 212.000000L434.000000 200.000000L433.000000 192.000000L429.000000 183.000000L426.000000 174.000000L423.000000 169.000000L421.000000 168.000000L420.000000 167.000000L419.000000 166.000000L418.000000 166.000000L417.000000 166.000000L413.000000 169.000000L412.000000 170.000000L409.000000 172.000000L404.000000 174.000000L401.000000 176.000000L400.000000 177.000000L399.000000 177.000000L398.000000 177.000000L397.000000 177.000000L396.000000 177.000000"/>
      </g>
      <g>
         <path style="stroke:rgb(0,0,0);fill:none;stroke-width:2.0;" d="M297.000000 48.000000L296.000000 48.000000L296.000000 51.000000L295.000000 57.000000L293.000000 64.000000L292.000000 70.000000L290.000000 80.000000L289.000000 87.000000L289.000000 92.000000L287.000000 101.000000L286.000000 103.000000L286.000000 105.000000L286.000000 109.000000L286.000000 113.000000L286.000000 114.000000L286.000000 116.000000L286.000000 120.000000L285.000000 125.000000L284.000000 129.000000L284.000000 133.000000L284.000000 135.000000L284.000000 137.000000L284.000000 137.000000L283.000000 138.000000L283.000000 139.000000L285.000000 138.000000L303.000000 136.000000L330.000000 131.000000L351.000000 127.000000L374.000000 122.000000L388.000000 119.000000L392.000000 119.000000L393.000000 119.000000L394.000000 119.000000L394.000000 118.000000L395.000000 118.000000L395.000000 117.000000L395.000000 115.000000L395.000000 107.000000L395.000000 99.000000L396.000000 91.000000L396.000000 84.000000L396.000000 73.000000L396.000000 65.000000L396.000000 53.000000L397.000000 51.000000L397.000000 49.000000L397.000000 48.000000L397.000000 47.000000L397.000000 46.000000L395.000000 46.000000L389.000000 46.000000L381.000000 45.000000L367.000000 44.000000L357.000000 43.000000L341.000000 43.000000L330.000000 43.000000L326.000000 43.000000L324.000000 43.000000L323.000000 43.000000L323.000000 44.000000L322.000000 44.000000L322.000000 44.000000L321.000000 44.000000L319.000000 44.000000L313.000000 46.000000L307.000000 47.000000L305.000000 47.000000L300.000000 49.000000L296.000000 49.000000L295.000000 49.000000"/>
      </g>
      <g>
         <g>
            <path style="stroke:rgb(0,0,0);fill:none;stroke-width:2.0;" d="M161.000000 45.000000L160.000000 47.000000L159.000000 48.000000L158.000000 50.000000L157.000000 51.000000L157.000000 52.000000L156.000000 54.000000L152.000000 57.000000L151.000000 59.000000L150.000000 61.000000L148.000000 64.000000L143.000000 68.000000L141.000000 71.000000L138.000000 76.000000L136.000000 78.000000L135.000000 79.000000L134.000000 81.000000L133.000000 82.000000L129.000000 87.000000L128.000000 87.000000L128.000000 88.000000L127.000000 89.000000L127.000000 90.000000L127.000000 91.000000L126.000000 91.000000L125.000000 94.000000L125.000000 95.000000L124.000000 95.000000L124.000000 96.000000"/>
         </g>
         <g>
            <path style="stroke:rgb(0,0,0);fill:none;stroke-width:2.0;" d="M124.000000 96.000000L124.000000 97.000000L123.000000 98.000000L125.000000 98.000000L128.000000 97.000000L148.000000 92.000000L161.000000 91.000000L179.000000 89.000000L195.000000 86.000000L196.000000 86.000000L199.000000 86.000000L200.000000 86.000000L201.000000 86.000000"/>
         </g>
         <g>
            <path style="stroke:rgb(0,0,0);fill:none;stroke-width:2.0;" d="M201.000000 86.000000L200.000000 84.000000L198.000000 82.000000L196.000000 81.000000L193.000000 77.000000L189.000000 75.000000L185.000000 73.000000L184.000000 72.000000L184.000000 72.000000L184.000000 72.000000L184.000000 71.000000L183.000000 70.000000L183.000000 70.000000L183.000000 69.000000L182.000000 69.000000L182.000000 68.000000L182.000000 67.000000L181.000000 67.000000L181.000000 66.000000L180.000000 66.000000L179.000000 64.000000L179.000000 63.000000L178.000000 63.000000L177.000000 62.000000L176.000000 61.000000L175.000000 61.000000L175.000000 60.000000L175.000000 59.000000L174.000000 58.000000L173.000000 57.000000L172.000000 57.000000L172.000000 56.000000L171.000000 54.000000L171.000000 53.000000L170.000000 53.000000L169.000000 53.000000L168.000000 53.000000"/>
         </g>
         <path style="stroke:rgb(0,0,0);fill:none;stroke-width:2.0;" d="M161.000000 45.000000L160.000000 47.000000L159.000000 48.000000L158.000000 50.000000L157.000000 51.000000L157.000000 52.000000L156.000000 54.000000L152.000000 57.000000L151.000000 59.000000L150.000000 61.000000L148.000000 64.000000L143.000000 68.000000L141.000000 71.000000L138.000000 76.000000L136.000000 78.000000L135.000000 79.000000L134.000000 81.000000L133.000000 82.000000L129.000000 87.000000L128.000000 87.000000L128.000000 88.000000L127.000000 89.000000L127.000000 90.000000L127.000000 91.000000L126.000000 91.000000L125.000000 94.000000L125.000000 95.000000L124.000000 95.000000L124.000000 96.000000L124.000000 97.000000L123.000000 98.000000L125.000000 98.000000L128.000000 97.000000L148.000000 92.000000L161.000000 91.000000L179.000000 89.000000L195.000000 86.000000L196.000000 86.000000L199.000000 86.000000L200.000000 86.000000L201.000000 86.000000L200.000000 84.000000L198.000000 82.000000L196.000000 81.000000L193.000000 77.000000L189.000000 75.000000L185.000000 73.000000L184.000000 72.000000L184.000000 72.000000L184.000000 72.000000L184.000000 71.000000L183.000000 70.000000L183.000000 70.000000L183.000000 69.000000L182.000000 69.000000L182.000000 68.000000L182.000000 67.000000L181.000000 67.000000L181.000000 66.000000L180.000000 66.000000L179.000000 64.000000L179.000000 63.000000L178.000000 63.000000L177.000000 62.000000L176.000000 61.000000L175.000000 61.000000L175.000000 60.000000L175.000000 59.000000L174.000000 58.000000L173.000000 57.000000L172.000000 57.000000L172.000000 56.000000L171.000000 54.000000L171.000000 53.000000L170.000000 53.000000L169.000000 53.000000L168.000000 53.000000"/>
      </g>
      <g>
         <path style="stroke:rgb(0,0,0);fill:none;stroke-width:2.0;" d="M118.000000 451.000000L119.000000 451.000000L122.000000 449.000000L128.000000 448.000000L144.000000 445.000000L157.000000 444.000000L176.000000 439.000000L198.000000 434.000000L217.000000 431.000000L226.000000 427.000000L239.000000 423.000000L252.000000 420.000000L261.000000 417.000000L264.000000 417.000000L266.000000 417.000000L267.000000 417.000000L269.000000 417.000000L274.000000 417.000000L276.000000 417.000000L277.000000 417.000000L278.000000 417.000000L279.000000 417.000000L280.000000 417.000000L281.000000 417.000000"/>
      </g>
      <g>
         <path style="stroke:rgb(0,0,0);fill:none;stroke-width:2.0;" d="M329.000000 373.000000L329.000000 372.000000L333.000000 365.000000L342.000000 356.000000L347.000000 353.000000L356.000000 344.000000L367.000000 334.000000L381.000000 329.000000L391.000000 323.000000L398.000000 320.000000L407.000000 317.000000L413.000000 315.000000L414.000000 315.000000L415.000000 315.000000L413.000000 312.000000L411.000000 312.000000L404.000000 310.000000L400.000000 310.000000L395.000000 308.000000L393.000000 308.000000L387.000000 306.000000L389.000000 306.000000L401.000000 308.000000L406.000000 308.000000L409.000000 308.000000L410.000000 308.000000L411.000000 308.000000L411.000000 309.000000L411.000000 311.000000L411.000000 314.000000L410.000000 323.000000L409.000000 336.000000L405.000000 354.000000L402.000000 362.000000L401.000000 369.000000"/>
      </g>
      <g>
         <path style="stroke:rgb(0,0,0);fill:none;stroke-width:2.0;" d="M15.000000 183.000000L15.000000 182.000000L15.000000 180.000000L15.000000 180.000000L16.000000 180.000000L17.000000 178.000000L19.000000 174.000000L19.000000 173.000000L20.000000 173.000000L21.000000 172.000000L21.000000 171.000000L22.000000 170.000000L22.000000 168.000000L23.000000 167.000000L24.000000 167.000000L25.000000 167.000000L26.000000 167.000000L26.000000 167.000000L27.000000 168.000000L27.000000 169.000000L27.000000 170.000000L27.000000 170.000000L27.000000 171.000000L27.000000 172.000000L27.000000 174.000000L27.000000 176.000000L27.000000 177.000000L27.000000 178.000000L27.000000 179.000000L28.000000 179.000000L28.000000 180.000000L29.000000 180.000000L30.000000 180.000000L31.000000 180.000000L32.000000 180.000000L33.000000 180.000000L34.000000 180.000000L35.000000 179.000000L35.000000 178.000000L36.000000 178.000000L36.000000 177.000000L37.000000 176.000000L37.000000 175.000000L38.000000 174.000000L38.000000 172.000000L39.000000 171.000000L39.000000 170.000000L39.000000 169.000000L40.000000 169.000000L41.000000 169.000000L41.000000 169.000000L42.000000 169.000000L43.000000 169.000000L44.000000 169.000000L46.000000 169.000000L46.000000 169.000000L47.000000 169.000000L47.000000 170.000000L48.000000 170.000000L48.000000 172.000000L49.000000 172.000000L49.000000 173.000000L49.000000 174.000000L49.000000 175.000000L50.000000 175.000000L50.000000 177.000000L50.000000 178.000000L51.000000 178.000000L51.000000 179.000000L52.000000 179.000000L53.000000 179.000000L53.000000 178.000000L54.000000 178.000000L54.000000 177.000000L55.000000 176.000000L56.000000 176.000000L57.000000 175.000000L58.000000 175.000000L58.000000 174.000000L59.000000 174.000000L59.000000 173.000000L60.000000 173.000000L60.000000 172.000000L61.000000 172.000000L62.000000 171.000000L62.000000 170.000000L62.000000 170.000000L62.000000 169.000000L63.000000 168.000000L64.000000 168.000000L65.000000 168.000000L65.000000 169.000000L66.000000 169.000000L67.000000 171.000000L67.000000 172.000000L68.000000 173.000000L68.000000 174.000000L69.000000 174.000000L69.000000 176.000000L70.000000 176.000000L70.000000 177.000000L71.000000 177.000000L72.000000 177.000000L73.000000 177.000000L74.000000 177.000000L74.000000 177.000000L75.000000 177.000000L75.000000 176.000000L76.000000 176.000000L77.000000 176.000000L77.000000 175.000000L78.000000 175.000000L78.000000 174.000000L79.000000 173.000000L80.000000 172.000000L80.000000 171.000000L82.000000 170.000000L83.000000 169.000000L84.000000 169.000000L85.000000 169.000000L86.000000 169.000000L86.000000 170.000000L87.000000 170.000000L87.000000 171.000000L87.000000 172.000000L88.000000 172.000000L88.000000 173.000000L88.000000 174.000000L88.000000 175.000000L89.000000 176.000000L89.000000 177.000000L90.000000 177.000000L90.000000 178.000000L91.000000 178.000000L92.000000 178.000000"/>
      </g>
      <path style="stroke:rgb(0,0,0);fill:none;stroke-width:2.0;" d="M110.000000 280.000000L111.000000 278.000000L114.000000 274.000000L131.000000 254.000000L152.000000 229.000000L172.000000 214.000000L195.000000 195.000000L209.000000 181.000000L221.000000 170.000000L224.000000 165.000000L225.000000 165.000000L225.000000 164.000000L226.000000 163.000000L226.000000 163.000000L230.000000 159.000000L232.000000 158.000000L233.000000 158.000000L233.000000 170.000000L232.000000 185.000000L232.000000 217.000000L233.000000 256.000000L234.000000 296.000000L236.000000 328.000000L237.000000 348.000000L237.000000 357.000000L237.000000 363.000000L237.000000 365.000000L237.000000 363.000000L238.000000 353.000000L237.000000 343.000000L235.000000 342.000000L234.000000 342.000000L233.000000 342.000000L225.000000 341.000000L215.000000 340.000000L209.000000 340.000000L195.000000 335.000000L186.000000 331.000000L178.000000 328.000000L167.000000 324.000000L156.000000 319.000000L154.000000 318.000000L150.000000 315.000000L148.000000 315.000000L147.000000 314.000000L145.000000 314.000000L144.000000 313.000000L144.000000 313.000000L144.000000 312.000000L143.000000 312.000000L143.000000 310.000000L140.000000 309.000000L139.000000 309.000000L139.000000 308.000000L139.000000 307.000000L139.000000 307.000000L138.000000 307.000000L138.000000 306.000000L138.000000 306.000000L138.000000 305.000000L137.000000 305.000000L137.000000 304.000000L136.000000 303.000000L135.000000 303.000000L135.000000 302.000000L135.000000 301.000000L134.000000 301.000000L134.000000 300.000000L134.000000 299.000000L133.000000 297.000000L132.000000 297.000000L132.000000 296.000000L131.000000 296.000000L131.000000 296.000000L131.000000 294.000000L130.000000 294.000000L129.000000 293.000000L127.000000 291.000000L126.000000 289.000000L125.000000 289.000000L125.000000 288.000000L124.000000 288.000000L123.000000 288.000000L122.000000 287.000000L121.000000 287.000000L121.000000 286.000000L120.000000 286.000000L119.000000 286.000000L119.000000 285.000000L117.000000 285.000000L116.000000 284.000000L116.000000 283.000000L115.000000 283.000000L115.000000 282.000000L114.000000 282.000000L114.000000 281.000000L113.000000 281.000000L113.000000 280.000000L112.000000 280.000000L112.000000 279.000000L111.000000 279.000000"/>
      <path style="stroke:rgb(0,0,0);fill:none;stroke-width:2.0;" d="M401.000000 185.000000L401.000000 184.000000L401.000000 183.000000L400.000000 183.000000L400.000000 182.000000L399.000000 181.000000L398.000000 181.000000L397.000000 180.000000L396.000000 179.000000L395.000000 179.000000L394.000000 179.000000L393.000000 178.000000L391.000000 178.000000L391.000000 177.000000L387.000000 176.000000L386.000000 175.000000L385.000000 175.000000L382.000000 175.000000L380.000000 175.000000L379.000000 175.000000L378.000000 175.000000L375.000000 175.000000L374.000000 175.000000L370.000000 176.000000L368.000000 176.000000L366.000000 177.000000L360.000000 182.000000L357.000000 184.000000L352.000000 186.000000L345.000000 191.000000L338.000000 195.000000L331.000000 200.000000L328.000000 203.000000L326.000000 204.000000L322.000000 205.000000L321.000000 206.000000L321.000000 208.000000L321.000000 209.000000L320.000000 211.000000L319.000000 213.000000L318.000000 214.000000L318.000000 215.000000L318.000000 216.000000L318.000000 220.000000L318.000000 223.000000L318.000000 225.000000L318.000000 229.000000L318.000000 232.000000L319.000000 237.000000L320.000000 239.000000L321.000000 241.000000L321.000000 243.000000L324.000000 250.000000L325.000000 250.000000L325.000000 251.000000L325.000000 252.000000L326.000000 253.000000L330.000000 255.000000L337.000000 257.000000L348.000000 259.000000L365.000000 263.000000L381.000000 264.000000L397.000000 266.000000L403.000000 266.000000L412.000000 267.000000L420.000000 267.000000L422.000000 267.000000L423.000000 267.000000L423.000000 266.000000L425.000000 265.000000L431.000000 263.000000L432.000000 262.000000L433.000000 262.000000L434.000000 261.000000L435.000000 261.000000L436.000000 259.000000L437.000000 256.000000L440.000000 252.000000L441.000000 246.000000L442.000000 244.000000L442.000000 241.000000L442.000000 235.000000L442.000000 230.000000L442.000000 226.000000L441.000000 222.000000L439.000000 215.000000L437.000000 212.000000L434.000000 200.000000L433.000000 192.000000L429.000000 183.000000L426.000000 174.000000L423.000000 169.000000L421.000000 168.000000L420.000000 167.000000L419.000000 166.000000L418.000000 166.000000L417.000000 166.000000L413.000000 169.000000L412.000000 170.000000L409.000000 172.000000L404.000000 174.000000L401.000000 176.000000L400.000000 177.000000L399.000000 177.000000L398.000000 177.000000L397.000000 177.000000L396.000000 177.000000"/>
      <path style="stroke:rgb(0,0,0);fill:none;stroke-width:2.0;" d="M297.000000 48.000000L296.000000 48.000000L296.000000 51.000000L295.000000 57.000000L293.000000 64.000000L292.000000 70.000000L290.000000 80.000000L289.000000 87.000000L289.000000 92.000000L287.000000 101.000000L286.000000 103.000000L286.000000 105.000000L286.000000 109.000000L286.000000 113.000000L286.000000 114.000000L286.000000 116.000000L286.000000 120.000000L285.000000 125.000000L284.000000 129.000000L284.000000 133.000000L284.000000 135.000000L284.000000 137.000000L284.000000 137.000000L283.000000 138.000000L283.000000 139.000000L285.000000 138.000000L303.000000 136.000000L330.000000 131.000000L351.000000 127.000000L374.000000 122.000000L388.000000 119.000000L392.000000 119.000000L393.000000 119.000000L394.000000 119.000000L394.000000 118.000000L395.000000 118.000000L395.000000 117.000000L395.000000 115.000000L395.000000 107.000000L395.000000 99.000000L396.000000 91.000000L396.000000 84.000000L396.000000 73.000000L396.000000 65.000000L396.000000 53.000000L397.000000 51.000000L397.000000 49.000000L397.000000 48.000000L397.000000 47.000000L397.000000 46.000000L395.000000 46.000000L389.000000 46.000000L381.000000 45.000000L367.000000 44.000000L357.000000 43.000000L341.000000 43.000000L330.000000 43.000000L326.000000 43.000000L324.000000 43.000000L323.000000 43.000000L323.000000 44.000000L322.000000 44.000000L322.000000 44.000000L321.000000 44.000000L319.000000 44.000000L313.000000 46.000000L307.000000 47.000000L305.000000 47.000000L300.000000 49.000000L296.000000 49.000000L295.000000 49.000000"/>
      <path style="stroke:rgb(0,0,0);fill:none;stroke-width:2.0;" d="M161.000000 45.000000L160.000000 47.000000L159.000000 48.000000L158.000000 50.000000L157.000000 51.000000L157.000000 52.000000L156.000000 54.000000L152.000000 57.000000L151.000000 59.000000L150.000000 61.000000L148.000000 64.000000L143.000000 68.000000L141.000000 71.000000L138.000000 76.000000L136.000000 78.000000L135.000000 79.000000L134.000000 81.000000L133.000000 82.000000L129.000000 87.000000L128.000000 87.000000L128.000000 88.000000L127.000000 89.000000L127.000000 90.000000L127.000000 91.000000L126.000000 91.000000L125.000000 94.000000L125.000000 95.000000L124.000000 95.000000L124.000000 96.000000L124.000000 97.000000L123.000000 98.000000L125.000000 98.000000L128.000000 97.000000L148.000000 92.000000L161.000000 91.000000L179.000000 89.000000L195.000000 86.000000L196.000000 86.000000L199.000000 86.000000L200.000000 86.000000L201.000000 86.000000L200.000000 84.000000L198.000000 82.000000L196.000000 81.000000L193.000000 77.000000L189.000000 75.000000L185.000000 73.000000L184.000000 72.000000L184.000000 72.000000L184.000000 72.000000L184.000000 71.000000L183.000000 70.000000L183.000000 70.000000L183.000000 69.000000L182.000000 69.000000L182.000000 68.000000L182.000000 67.000000L181.000000 67.000000L181.000000 66.000000L180.000000 66.000000L179.000000 64.000000L179.000000 63.000000L178.000000 63.000000L177.000000 62.000000L176.000000 61.000000L175.000000 61.000000L175.000000 60.000000L175.000000 59.000000L174.000000 58.000000L173.000000 57.000000L172.000000 57.000000L172.000000 56.000000L171.000000 54.000000L171.000000 53.000000L170.000000 53.000000L169.000000 53.000000L168.000000 53.000000"/>
      <path style="stroke:rgb(0,0,0);fill:none;stroke-width:2.0;" d="M118.000000 451.000000L119.000000 451.000000L122.000000 449.000000L128.000000 448.000000L144.000000 445.000000L157.000000 444.000000L176.000000 439.000000L198.000000 434.000000L217.000000 431.000000L226.000000 427.000000L239.000000 423.000000L252.000000 420.000000L261.000000 417.000000L264.000000 417.000000L266.000000 417.000000L267.000000 417.000000L269.000000 417.000000L274.000000 417.000000L276.000000 417.000000L277.000000 417.000000L278.000000 417.000000L279.000000 417.000000L280.000000 417.000000L281.000000 417.000000"/>
      <path style="stroke:rgb(0,0,0);fill:none;stroke-width:2.0;" d="M329.000000 373.000000L329.000000 372.000000L333.000000 365.000000L342.000000 356.000000L347.000000 353.000000L356.000000 344.000000L367.000000 334.000000L381.000000 329.000000L391.000000 323.000000L398.000000 320.000000L407.000000 317.000000L413.000000 315.000000L414.000000 315.000000L415.000000 315.000000L413.000000 312.000000L411.000000 312.000000L404.000000 310.000000L400.000000 310.000000L395.000000 308.000000L393.000000 308.000000L387.000000 306.000000L389.000000 306.000000L401.000000 308.000000L406.000000 308.000000L409.000000 308.000000L410.000000 308.000000L411.000000 308.000000L411.000000 309.000000L411.000000 311.000000L411.000000 314.000000L410.000000 323.000000L409.000000 336.000000L405.000000 354.000000L402.000000 362.000000L401.000000 369.000000"/>
      <path style="stroke:rgb(0,0,0);fill:none;stroke-width:2.0;" d="M15.000000 183.000000L15.000000 182.000000L15.000000 180.000000L15.000000 180.000000L16.000000 180.000000L17.000000 178.000000L19.000000 174.000000L19.000000 173.000000L20.000000 173.000000L21.000000 172.000000L21.000000 171.000000L22.000000 170.000000L22.000000 168.000000L23.000000 167.000000L24.000000 167.000000L25.000000 167.000000L26.000000 167.000000L26.000000 167.000000L27.000000 168.000000L27.000000 169.000000L27.000000 170.000000L27.000000 170.000000L27.000000 171.000000L27.000000 172.000000L27.000000 174.000000L27.000000 176.000000L27.000000 177.000000L27.000000 178.000000L27.000000 179.000000L28.000000 179.000000L28.000000 180.000000L29.000000 180.000000L30.000000 180.000000L31.000000 180.000000L32.000000 180.000000L33.000000 180.000000L34.000000 180.000000L35.000000 179.000000L35.000000 178.000000L36.000000 178.000000L36.000000 177.000000L37.000000 176.000000L37.000000 175.000000L38.000000 174.000000L38.000000 172.000000L39.000000 171.000000L39.000000 170.000000L39.000000 169.000000L40.000000 169.000000L41.000000 169.000000L41.000000 169.000000L42.000000 169.000000L43.000000 169.000000L44.000000 169.000000L46.000000 169.000000L46.000000 169.000000L47.000000 169.000000L47.000000 170.000000L48.000000 170.000000L48.000000 172.000000L49.000000 172.000000L49.000000 173.000000L49.000000 174.000000L49.000000 175.000000L50.000000 175.000000L50.000000 177.000000L50.000000 178.000000L51.000000 178.000000L51.000000 179.000000L52.000000 179.000000L53.000000 179.000000L53.000000 178.000000L54.000000 178.000000L54.000000 177.000000L55.000000 176.000000L56.000000 176.000000L57.000000 175.000000L58.000000 175.000000L58.000000 174.000000L59.000000 174.000000L59.000000 173.000000L60.000000 173.000000L60.000000 172.000000L61.000000 172.000000L62.000000 171.000000L62.000000 170.000000L62.000000 170.000000L62.000000 169.000000L63.000000 168.000000L64.000000 168.000000L65.000000 168.000000L65.000000 169.000000L66.000000 169.000000L67.000000 171.000000L67.000000 172.000000L68.000000 173.000000L68.000000 174.000000L69.000000 174.000000L69.000000 176.000000L70.000000 176.000000L70.000000 177.000000L71.000000 177.000000L72.000000 177.000000L73.000000 177.000000L74.000000 177.000000L74.000000 177.000000L75.000000 177.000000L75.000000 176.000000L76.000000 176.000000L77.000000 176.000000L77.000000 175.000000L78.000000 175.000000L78.000000 174.000000L79.000000 173.000000L80.000000 172.000000L80.000000 171.000000L82.000000 170.000000L83.000000 169.000000L84.000000 169.000000L85.000000 169.000000L86.000000 169.000000L86.000000 170.000000L87.000000 170.000000L87.000000 171.000000L87.000000 172.000000L88.000000 172.000000L88.000000 173.000000L88.000000 174.000000L88.000000 175.000000L89.000000 176.000000L89.000000 177.000000L90.000000 177.000000L90.000000 178.000000L91.000000 178.000000L92.000000 178.000000"/>
   </g>
</svg>